<svg transform="scale(1)" version="1.1" id="Layer_1" xmlns="http://www.w3.org/2000/svg" xmlns:xlink="http://www.w3.org/1999/xlink" x="0px" y="0px" viewBox="0 0 500 500" xml:space="preserve" class="show_show__wrapper__graphic__5Waiy "><title>React</title><style type="text/css">
	.st0{fill:#0ea5e9;}
	.st1{fill:#64748B;}
	.st2{fill:#E2E8F0;}
	.st3{fill:#F59E0B;}
</style><g id="board"><path class="st0" d="M69.2,368.8c14.9-0.2,29.7-0.3,44.6-0.3l22.3,0.1c7.4,0,14.9,0.2,22.3,0.3l22.3,0.5l11.1,0.2l11.1,0.2
		c14.9,0.2,29.7,0.2,44.6,0.2c14.9,0,29.7-0.1,44.6,0s29.7,0.1,44.6,0.3c29.7,0.3,59.4,0.9,89.2,1.7v0.2
		c-29.7,0.4-59.5,0.4-89.2,0.1c-14.9-0.1-29.7-0.3-44.6-0.5s-29.7-0.5-44.6-0.8s-29.7-0.6-44.6-0.6h-11.1h-11.1l-22.3,0.1
		c-7.4,0-14.9,0-22.3-0.1l-22.3-0.3c-14.9-0.3-29.7-0.6-44.6-1.1L69.2,368.8z"></path><path class="st0" d="M139,322.2c14.2,9.6,28.1,19.5,41.8,29.8c6.8,5.2,13.6,10.5,20.4,15.6s13.8,10.1,20.8,15s14,9.9,20.9,14.9
		s13.9,10,20.8,15.1c13.7,10.2,27.4,20.5,40.8,31.2l-0.1,0.2c-14.2-9.6-28.1-19.6-42-29.6c-6.9-5-13.8-10.2-20.6-15.3
		s-13.7-10.3-20.5-15.5s-13.6-10.4-20.6-15.4s-14-9.8-21-14.8c-13.9-10-27.6-20.3-41-31L139,322.2z"></path><path class="st0" d="M265.8,312.8c14.2,9.6,28.1,19.5,41.8,29.8c6.8,5.2,13.5,10.5,20.4,15.6s13.8,10.1,20.8,15s14,9.9,20.9,14.9
		s13.9,10,20.8,15.1c13.7,10.2,27.4,20.5,40.8,31.2l-0.1,0.2c-14.2-9.6-28.1-19.6-42-29.6c-6.9-5-13.8-10.2-20.6-15.3
		s-13.7-10.3-20.5-15.5s-13.6-10.4-20.6-15.4s-14-9.8-21-14.8c-13.9-10-27.6-20.3-41-31L265.8,312.8z"></path></g><g id="arrow"><path class="st0" d="M101.1,136.1c-3.5,7.3-6.7,14.7-9.5,22.2c-2.9,7.5-5.2,15.2-7,23c-0.9,3.9-1.4,7.8-1.6,11.8
		c-0.1,3.9,0.2,7.9,1.9,11.2c0.4,0.8,0.9,1.5,1.5,2.2c0.6,0.6,1.3,1.2,2,1.7c1.6,0.9,3.3,1.5,5.1,1.6c3.6,0.4,7.3-0.9,10.8-2.6
		c3.5-1.8,6.8-4,9.9-6.5c3.1-2.4,6.1-5.1,9-7.8c5.8-5.5,11.3-11.4,16.5-17.5c10.4-12.3,20.1-25.1,29-38.5
		c4.5-6.7,8.6-13.5,12.3-20.7c0.9-1.8,1.7-3.6,2.5-5.4c0.8-1.7,1.3-3.6,1.6-5.4c0-0.3,0-0.7-0.1-1c0-0.1-0.1-0.2-0.1-0.2s0,0-0.1,0
		c-0.3,0-0.6,0-0.9,0.1c-0.4,0.1-0.9,0.3-1.3,0.5c-1.8,0.7-3.4,1.7-4.9,2.9c-6.1,5-9.4,12.7-8.7,20.6c0.4,3.9,2.2,7.5,5,10.2
		c0.7,0.7,1.4,1.3,2.2,1.9c0.8,0.5,1.7,1,2.5,1.5c1.8,0.9,3.6,1.5,5.6,1.9c3.9,0.8,7.9,1,11.9,0.6c4-0.4,7.9-1.4,11.6-2.9
		c7.4-3.1,14.4-7.1,20.9-11.8c6.6-4.7,12.9-9.7,18.9-15.1c6-5.4,11.8-11,17.3-16.9s10.8-11.9,15.8-18.2c2.5-3.2,4.9-6.4,7-9.7
		c1.1-1.7,2.1-3.3,3-5.1c0.4-0.9,0.9-1.7,1.2-2.6c0.4-0.8,0.6-1.6,0.7-2.5c0-0.2,0-0.3,0-0.5c0-0.1,0-0.2,0-0.3l0,0l0,0l0,0l0,0
		c0,0-0.1,0-0.3,0.1c-0.3,0.2-0.6,0.4-0.8,0.6c-1.3,1.3-2.4,2.8-3.2,4.4c-1.9,3.5-3.5,7.1-4.8,10.8c-2.7,7.5-4.6,15.3-5.9,23.1
		c-1.3,7.8-1.7,15.8-1,23.7c0.4,3.9,1.2,7.6,2.6,11.3c1.3,3.5,3.4,6.6,6.1,9.1c2.8,2.4,6.2,3.9,9.9,4.4c1.9,0.3,3.7,0.4,5.6,0.3
		c1.9-0.1,3.8-0.3,5.7-0.6l1.4-0.2c0.5-0.1,1-0.2,1.4-0.3c1-0.2,1.9-0.4,2.9-0.7c1.9-0.6,3.8-1.1,5.6-1.8s3.6-1.5,5.4-2.3
		s3.5-1.7,5.2-2.7c6.9-3.9,13.3-8.6,19.1-14c5.9-5.4,11.4-11.3,16.4-17.5c5-6.2,9.7-12.8,13.8-19.6c2.1-3.4,4-6.9,5.8-10.5
		c1.8-3.5,3.3-7.2,4.4-11c0.3-0.9,0.4-1.8,0.5-2.7c0-0.4,0-0.8,0-1.2c0-0.2,0-0.4-0.1-0.5c0,0,0.1,0.1,0.1,0.1l0,0c0,0,0,0-0.1,0
		c-0.2,0-0.4,0.1-0.6,0.2l-0.7,0.2c-0.9,0.3-1.8,0.7-2.6,1.1c-3.4,1.8-6.5,4.2-9.2,7.1c-2.8,2.8-5.1,6-7,9.4
		c-0.4,0.8-0.8,1.7-1.1,2.6c-0.1,0.4-0.2,0.8-0.3,1.2c0,0.2,0,0.4,0.1,0.6c-0.1-0.1,0.2,0.2,0.4,0.3l0.6,0.4l1.2,0.9l2.5,1.7
		c3.3,2.3,6.8,4.2,10.4,5.8c1.8,0.8,3.6,1.2,5.6,1.3c0.9,0,1.8-0.2,2.6-0.6c0.8-0.5,1.4-1.2,1.7-2c0.9-1.8,1.4-3.6,1.7-5.6
		c0.3-2,0.4-4,0.4-6c-0.1-4-0.5-8-1.2-12l0.4-0.1c0.9,4,1.5,8.1,1.7,12.2c0.1,2,0,4.1-0.2,6.1c-0.2,2.1-0.7,4.1-1.6,6
		c-0.4,1.1-1.2,2-2.1,2.6c-1,0.6-2.1,0.9-3.2,0.9c-2.1,0-4.2-0.5-6.2-1.2c-3.8-1.5-7.5-3.4-10.9-5.7l-2.6-1.7l-1.2-0.8l-0.6-0.4
		c-0.3-0.2-0.5-0.4-0.8-0.6c-0.5-0.6-0.8-1.4-0.7-2.2c0-0.6,0.2-1.2,0.3-1.7c0.3-1,0.7-2,1.2-3c1.9-3.7,4.3-7.1,7.1-10.2
		c2.8-3.1,6.1-5.8,9.8-7.9c1-0.5,1.9-1,3-1.3l0.8-0.2c0.3-0.1,0.6-0.2,0.9-0.2c0.2,0,0.4-0.1,0.6-0.1c0.2,0,0.5,0,0.7,0.1
		c0.5,0.1,1,0.4,1.4,0.8c0.5,0.6,0.9,1.4,0.9,2.2c0.1,0.6,0.1,1.2,0,1.8c-0.1,1.1-0.3,2.2-0.6,3.2c-1.1,4-2.6,7.9-4.4,11.6
		c-1.8,3.7-3.7,7.3-5.7,10.8c-4.2,7.1-8.8,13.8-13.9,20.2c-2.5,3.2-5.2,6.3-7.9,9.4s-5.7,5.9-8.7,8.7c-6,5.6-12.7,10.6-19.8,14.7
		c-1.8,1.1-3.6,1.9-5.5,2.9s-3.8,1.7-5.8,2.4s-4,1.4-5.9,2c-1,0.3-2,0.5-3,0.7c-0.5,0.1-1,0.2-1.5,0.3l-1.5,0.2
		c-2.1,0.4-4.2,0.6-6.3,0.7c-2.2,0.1-4.3,0-6.5-0.4c-4.4-0.7-8.5-2.6-11.9-5.5c-3.2-3-5.7-6.7-7.2-10.8c-1.4-4-2.4-8.1-2.7-12.3
		c-0.7-8.2-0.2-16.5,1.2-24.7c1.4-8.1,3.5-16,6.3-23.7c1.4-3.9,3.2-7.7,5.2-11.3c1.1-1.9,2.4-3.7,4-5.2c0.5-0.4,1.1-0.8,1.7-1.1
		c0.2-0.1,0.4-0.1,0.6-0.2c0.2-0.1,0.4-0.1,0.6-0.1c0.2,0,0.5,0,0.7,0c0.2,0,0.5,0.1,0.7,0.2c0.2,0.1,0.5,0.2,0.7,0.3
		c0.2,0.1,0.4,0.3,0.6,0.5c0.2,0.2,0.3,0.4,0.5,0.6c0.1,0.2,0.2,0.4,0.3,0.6c0.1,0.4,0.2,0.8,0.2,1.2c0,0.3,0,0.7-0.1,1
		c-0.2,1.1-0.5,2.2-1,3.3c-0.4,1-0.9,1.9-1.4,2.9c-1,1.8-2.1,3.6-3.3,5.3c-2.3,3.4-4.8,6.6-7.4,9.8c-5.1,6.3-10.6,12.3-16.3,18.1
		c-11.3,11.6-23.7,22.2-36.9,31.6c-6.6,4.7-13.8,8.7-21.3,11.8c-3.8,1.5-7.8,2.6-11.9,3c-4.1,0.4-8.2,0.2-12.3-0.6l-1.5-0.4
		l-0.8-0.2l-0.7-0.2l-1.5-0.5c-0.5-0.2-0.9-0.4-1.4-0.6c-0.9-0.4-1.9-1-2.7-1.5c-0.9-0.6-1.7-1.3-2.4-2c-3.1-2.9-5.1-6.8-5.6-11.1
		c-0.5-4.2,0-8.4,1.6-12.3c0.8-2,1.8-3.8,3-5.5c1.2-1.7,2.6-3.3,4.3-4.7c1.6-1.4,3.4-2.5,5.4-3.4c0.5-0.2,1-0.5,1.5-0.6
		c0.7-0.2,1.4-0.3,2.1-0.2c0.5,0.1,0.9,0.3,1.2,0.6c0.3,0.3,0.6,0.7,0.7,1.1c0.2,0.6,0.3,1.3,0.2,2c-0.2,2.1-0.8,4.3-1.6,6.2
		c-0.7,1.9-1.6,3.8-2.4,5.7c-3.6,7.3-7.6,14.4-12.1,21.2c-4.4,6.8-9,13.5-13.9,20s-9.9,12.9-15.2,19c-5.3,6.2-10.9,12.1-16.9,17.7
		c-3,2.8-6.1,5.4-9.4,7.9c-3.3,2.5-6.8,4.8-10.5,6.7c-1.9,1-3.9,1.7-5.9,2.3c-2.1,0.6-4.4,0.8-6.6,0.5c-2.2-0.2-4.4-1-6.3-2.1
		c-1-0.6-1.8-1.4-2.6-2.2c-0.7-0.9-1.3-1.8-1.8-2.8c-0.9-2-1.5-4.1-1.8-6.2c-0.2-2.1-0.3-4.2-0.2-6.3c0.3-4.1,0.9-8.1,1.9-12.1
		c2-7.9,4.6-15.6,7.8-23.1c3.1-7.5,6.6-14.8,10.4-21.9L101.1,136.1z"></path></g><g id="king"><path class="st1" d="M297.3,354.1c0,0,0.8-28.4-1.7-33.4S284,309.6,284,309.6s-18-41.4-20.1-74c0,0,14.4-5.1,14.4-8
		s-14.7-7.2-14.7-7.2s-3.7-16.4,2.3-27.3s14.1-14.6,14.1-17.8s-0.3-13.5-1.4-13.5s-20.7-0.6-20.7-0.6l0.3-7l-26-0.2l-0.2,7.2
		c0,0-20.2,1.1-21.9,2s-1.1,11.6,0.2,14.1s14.1,11.4,16.8,23.7s1.3,20.6,0.4,20.8s-18.8,3.4-15.7,6.7s14.8,6.9,14.8,6.9
		s-8.4,61.7-20.8,76.2c0,0-7.6,6.9-7.6,8.6s0.3,33.9,0.3,33.9L297.3,354.1z"></path><path class="st2" d="M200.3,321.2c7.9-0.4,15.7-0.6,23.6-0.8c7.9-0.2,15.7-0.3,23.6-0.4l23.6-0.1l11.8-0.1c2,0,3.9,0,5.9-0.1
		c1,0,2-0.1,3-0.1c1,0,2-0.1,2.9-0.3c-1.9,0.5-3.9,0.8-5.8,1c-2,0.2-3.9,0.4-5.9,0.5c-3.9,0.3-7.8,0.5-11.8,0.7
		c-7.9,0.3-15.7,0.5-23.6,0.6s-15.7,0.1-23.6-0.1S208.2,321.6,200.3,321.2z"></path><path class="st2" d="M210.2,310.7c6.1-0.5,12.3-1,18.4-1.2c6.1-0.3,12.3-0.5,18.5-0.6s12.3-0.2,18.5-0.1c3.1,0,6.2,0.1,9.2,0.2
		c3.1,0.1,6.2,0.3,9.2,0.7c-3.1,0-6.1,0.1-9.2,0.3l-9.2,0.4c-6.1,0.2-12.3,0.4-18.4,0.5C234.8,311,222.5,311.1,210.2,310.7z"></path><path class="st2" d="M227.6,221.9c3.2-0.5,6.4-0.8,9.6-1.1s6.4-0.4,9.6-0.4s6.4-0.1,9.6,0.1c1.6,0.1,3.2,0.2,4.8,0.4
		c1.6,0.1,3.2,0.4,4.8,0.8c-3.2,0-6.4,0.3-9.6,0.4s-6.4,0.2-9.6,0.3s-6.4,0.1-9.6,0S230.8,222.2,227.6,221.9z"></path><path class="st2" d="M229.9,161.2c2.4-0.3,4.7-0.5,7.1-0.6c2.4-0.1,4.7-0.1,7.1,0s4.7,0.2,7.1,0.4c2.4,0.2,4.7,0.5,7.1,1
		c-2.4,0.3-4.7,0.5-7.1,0.6c-2.4,0.1-4.7,0.1-7.1,0s-4.7-0.2-7.1-0.4C234.6,162,232.2,161.7,229.9,161.2z"></path><path class="st3" d="M243.3,144.3c0,0-6.9,0-7.8-0.3s-0.9-5.3-0.9-5.3l7.6,0.8c0,0-2.3-8.4-1.5-8.5c3.5,0,7,0.2,10.5,0.6
		c1.2,0.3-2,8.2-2,8.2l6.6,0.3l-0.3,4.9l-5.9-0.4c0,0,1.4,7.2,0.8,7.5s-9.1,0.8-9.1-1.1S243.3,144.3,243.3,144.3z"></path></g><g id="pioneer"><path class="st0" d="M295.5,322.3c0,0-15.8-9.1-12.1-25.4s25.1-20.6,36.1-15.8s16.1,37.2-0.9,40.9l4.5,3.1c0,0,4.2-0.1,4.2,1.5
		s-7.4,2.1-7.4,2.1s-2.6,11.4,0.5,21.2c4.9,15.5,8.7,22.9,8.7,22.9s5.8,3.7,2.3,5.1l1.2,24.7c0,0,3.8,4,2.8,5.2s-54.2,0.7-56.1,0.2
		s2.6-5.2,2.6-5.2l1-26.1l-2.4-1.6c0,0,1.4-1.2,3.5-2.8s7.1-14.8,9.4-21.4s1-23,1-23s-7.9-0.2-8.1-1.1s4.5-0.8,4.5-0.8L295.5,322.3z
		"></path><path class="st1" d="M297.1,322.3l6.6-0.1c2.2-0.1,4.4-0.1,6.6-0.3s4.4-0.3,6.6-0.6l1.6-0.2l1.6-0.4c0.5-0.1,1-0.3,1.6-0.5
		s1-0.5,1.5-0.7c-1.8,1.3-4,2.1-6.2,2.5c-2.2,0.4-4.4,0.7-6.6,0.8c-2.2,0.1-4.5,0.1-6.7,0C301.5,322.8,299.3,322.6,297.1,322.3z"></path><path class="st1" d="M296,327.5c2.2-0.2,4.4-0.2,6.5-0.3s4.4,0,6.5,0s4.4,0.1,6.5,0.2l3.3,0.2c1.1,0.1,2.2,0.2,3.3,0.3
		c-1.1,0.1-2.2,0.1-3.3,0.2l-3.3,0.1c-2.2,0.1-4.4,0.1-6.5,0s-4.4-0.1-6.5-0.2S298.1,327.7,296,327.5z"></path><path class="st1" d="M280.4,375.1c4-0.4,8.1-0.8,12.1-1.1s8.1-0.5,12.2-0.8s8.1-0.4,12.2-0.5s8.1-0.3,12.2,0.1
		c-2,0-4.1,0.2-6.1,0.3l-6.1,0.4l-12.2,0.7c-4.1,0.2-8.1,0.4-12.2,0.5S284.5,375.1,280.4,375.1z"></path><path class="st0" d="M149.3,331c0,0-15.8-9.1-12.1-25.4s25.1-20.6,36.1-15.8s16.1,37.2-0.9,40.9l4.4,3.1c0,0,4.2-0.1,4.2,1.5
		s-7.4,2.2-7.4,2.2s-2.6,11.4,0.5,21.2c4.9,15.5,8.7,22.9,8.7,22.9s5.8,3.7,2.3,5.1l1.2,24.7c0,0,3.8,4,2.8,5.2s-54.3,0.7-56.1,0.2
		s2.6-5.2,2.6-5.2l0.9-26.1l-2.4-1.6c0,0,1.4-1.2,3.5-2.8s7.1-14.8,9.4-21.4s0.9-23.1,0.9-23.1s-7.9-0.2-8.1-1.1s4.5-0.8,4.5-0.8
		L149.3,331z"></path><path class="st1" d="M150.9,331l6.6-0.1c2.2-0.1,4.4-0.1,6.6-0.3s4.4-0.3,6.6-0.6l1.6-0.2l1.6-0.4c0.5-0.1,1-0.3,1.6-0.5
		s1-0.5,1.5-0.7c-1.9,1.3-4,2.1-6.2,2.5c-2.2,0.4-4.4,0.7-6.6,0.8c-2.2,0.1-4.4,0.1-6.7,0C155.3,331.5,153.1,331.3,150.9,331z"></path><path class="st1" d="M149.7,336.2c2.2-0.2,4.4-0.3,6.5-0.3s4.4-0.1,6.5,0s4.4,0.1,6.5,0.2l3.3,0.2c1.1,0.1,2.2,0.1,3.3,0.3
		c-1.1,0.1-2.2,0.1-3.3,0.2l-3.3,0.1c-2.2,0.1-4.4,0-6.5,0s-4.4-0.1-6.5-0.2S151.9,336.5,149.7,336.2z"></path><path class="st1" d="M134.2,383.9c4-0.5,8.1-0.8,12.1-1.1s8.1-0.5,12.2-0.8s8.1-0.4,12.2-0.5s8.1-0.3,12.2,0.1c-2,0-4,0.2-6.1,0.3
		l-6.1,0.4l-12.2,0.7c-4.1,0.2-8.1,0.4-12.2,0.5S138.2,383.9,134.2,383.9z"></path><path class="st0" d="M374.9,274.6c0,0-15.8-9.1-12.1-25.4s25.1-20.6,36.1-15.8s16.1,37.2-0.9,40.9l4.5,3.1c0,0,4.2-0.1,4.2,1.5
		s-7.4,2.2-7.4,2.2s-2.6,11.4,0.5,21.2c4.9,15.5,8.7,22.9,8.7,22.9s5.8,3.7,2.3,5.1l1.2,24.8c0,0,3.8,4,2.8,5.2s-54.2,0.7-56.1,0.2
		s2.6-5.2,2.6-5.2l0.9-26.1l-2.4-1.6c0,0,1.4-1.2,3.5-2.8s7.1-14.8,9.4-21.4s0.9-23.1,0.9-23.1s-7.9-0.2-8.1-1.1s4.5-0.8,4.5-0.8
		L374.9,274.6z"></path><path class="st1" d="M376.5,274.5l6.6-0.1c2.2-0.1,4.4-0.1,6.6-0.3s4.4-0.3,6.6-0.6l1.6-0.2l1.6-0.4c0.5-0.1,1-0.3,1.6-0.5
		s1-0.5,1.5-0.7c-1.9,1.3-4,2.1-6.2,2.5c-2.2,0.4-4.4,0.7-6.6,0.8c-2.2,0.1-4.5,0.1-6.7,0C380.9,275.1,378.7,274.9,376.5,274.5z"></path><path class="st1" d="M375.4,279.8c2.2-0.2,4.4-0.3,6.5-0.3s4.4-0.1,6.5,0s4.4,0.1,6.5,0.2l3.3,0.2c1.1,0.1,2.2,0.1,3.3,0.3
		c-1.1,0.1-2.2,0.1-3.3,0.2l-3.3,0.1c-2.2,0.1-4.4,0-6.5,0s-4.4-0.1-6.5-0.2S377.5,280,375.4,279.8z"></path><path class="st1" d="M359.8,327.4c4-0.5,8.1-0.8,12.1-1.1s8.1-0.5,12.2-0.8s8.1-0.4,12.2-0.5s8.1-0.3,12.2,0.1c-2,0-4,0.2-6.1,0.3
		l-6.1,0.4l-12.2,0.7c-4,0.2-8.1,0.4-12.2,0.5S363.9,327.4,359.8,327.4z"></path></g></svg>