<svg transform="scale(1)" version="1.1" id="Layer_1" xmlns="http://www.w3.org/2000/svg" xmlns:xlink="http://www.w3.org/1999/xlink" x="0px" y="0px" viewBox="0 0 500 500" xml:space="preserve" class="show_show__wrapper__graphic__5Waiy "><title>React</title><style type="text/css">
	.st0{fill:#E2E8F0;}
	.st1{fill:#0ea5e9;}
	.st2{fill:#F59E0B;}
	.st3{fill:#64748B;}
	.st4{clip-path:url(#SVGID_2_);}
</style><g id="screen"><rect class="st0" x="35.2" y="152.1" width="98.9" height="191.1"></rect><rect class="st1" x="51.8" y="188" width="65.3" height="68.9"></rect><path class="st1" d="M51.8,270.8H83v27.9c0,0-30,4-30,0S51.8,270.8,51.8,270.8z"></path><path class="st0" d="M51.8,256.9c5.2-6,10.4-11.9,15.8-17.8c5.3-5.9,10.8-11.6,16.2-17.4s10.9-11.4,16.5-17.1s11.2-11.2,16.9-16.7
		c-5.2,6-10.4,11.9-15.8,17.8c-5.4,5.8-10.7,11.6-16.2,17.4c-5.5,5.7-10.9,11.4-16.5,17.1S57.5,251.4,51.8,256.9z"></path><path class="st0" d="M51.8,188c5.7,5.5,11.4,11,16.9,16.7c5.6,5.6,11,11.4,16.5,17.1s10.8,11.5,16.2,17.4s10.7,11.8,15.8,17.8
		c-5.7-5.5-11.4-11-16.9-16.7c-5.6-5.6-11-11.4-16.5-17.1s-10.8-11.5-16.2-17.4S56.9,194,51.8,188z"></path><path class="st1" d="M88.1,270.8h31.3v27.9c0,0-31.2,4-31.2,0S88.1,270.8,88.1,270.8z"></path><path class="st2" d="M58.8,316.3h53.8c3.8,0,6.8,3,6.8,6.8l0,0c0,3.7-2.9,6.7-6.6,6.8c-17,0.4-60.7,1.4-60.7-0.2
		c0-0.9-0.1-3.6-0.1-6.5c-0.1-3.8,2.9-6.9,6.6-7C58.6,316.3,58.7,316.3,58.8,316.3z"></path><path class="st2" d="M55.9,165c0,0-5.2,1-4,6.8s9.3,4.3,10.6,0S59.7,164,55.9,165z"></path><rect class="st3" x="102.9" y="169.2" width="14.2" height="2"></rect><rect class="st1" x="139.4" y="42.7" width="80.8" height="78.4"></rect><path class="st0" d="M189,103.8c-0.4,0-0.8-0.1-1.1-0.3c-1.3-0.9-1.5-2.8-0.5-5.6c1.8-4.4,4.2-8.4,7.4-11.9
		c0.9-7.5,0.1-16.1-4.7-21.8c-2-2.4-4.5-2.7-7.8-1c-4.8,2.5-9.9,8.8-14,15.3c-1.5,6.8-4.1,14.1-6.2,17.5c-1.1,1.8-2.1,2.6-3.1,2.5
		c-0.7-0.1-1.2-0.6-1.3-1.3c-0.4-2.4,3.4-11.2,8.7-19.6c1-4.5,1.4-8.7,0.9-11.3c-0.4-1.9-1.1-1.8-1.4-1.8
		c-5.8,0.6-11,12.1-12.6,16.5l-1.9-0.7c0.2-0.7,6-16.9,14.2-17.8c1.2-0.2,2.3,0.4,2.9,1.4c1.1,1.8,1.2,5.4,0.6,9.6
		c4-5.6,8.6-10.5,12.9-12.5c3.8-1.8,7.1-1.1,9.6,1.8c4.7,5.6,6,13.5,5.5,20.8c1.9-1.7,3.7-2.8,5.2-2.7l-0.1,2
		c-1.3-0.1-3.3,1.5-5.4,3.8c-1,7.3-3.5,13.6-5.6,15.9C190.7,103.3,189.9,103.7,189,103.8z M194.1,89.8c-2,2.6-3.7,5.5-4.8,8.7
		c-0.8,2.2-0.5,3.1-0.2,3.3c0.2,0,1.4-0.9,3-4.8C193,94.7,193.7,92.3,194.1,89.8L194.1,89.8z M164.5,84.6c-2.8,5.1-4.6,9.6-4.9,11.4
		C160.9,94.8,162.9,90.1,164.5,84.6L164.5,84.6z"></path><path class="st0" d="M206.4,82.7l-1.1-1.7c2.3-1.6,3.9-2,4.8-1.2l-1.3,1.5c0.1,0.1,0.2,0.1,0.2,0.1l0,0
		C208,81.7,207.2,82.1,206.4,82.7z"></path><rect class="st0" x="365.9" y="132.8" width="98.9" height="151.5"></rect><path class="st2" d="M404.5,158.2c0,0-0.4,40.9,2,40.1s28.1-16.4,27.3-20.1S404.5,158.2,404.5,158.2z"></path><rect class="st1" x="398.2" y="213.2" width="41.9" height="2"></rect><rect class="st1" x="398.2" y="234.1" width="41.9" height="2"></rect><rect class="st1" x="398.2" y="257.3" width="26.4" height="2"></rect><rect class="st1" x="360" y="308.1" width="102.7" height="75.4"></rect><rect class="st0" x="378.3" y="333.1" width="66.1" height="2"></rect><rect class="st0" x="378.3" y="345.6" width="48.9" height="2"></rect><rect class="st0" x="378.3" y="359.8" width="47.3" height="2"></rect><path class="st1" d="M160.2,416c0,0-13.4,2.6-10.3,17.8s24.2,11.3,27.8,0S170,413.4,160.2,416z"></path><path class="st0" d="M157.1,428.4c1.1,0.7,2.2,1.6,3.2,2.4c1,0.9,2,1.8,2.9,2.7l-1.4,0.1c1.2-1.9,2.5-3.6,3.9-5.4
		c0.7-0.9,1.4-1.7,2.1-2.5c0.7-0.8,1.5-1.6,2.4-2.4c-0.4,1-0.9,2-1.4,3c-0.5,1-1.1,1.9-1.7,2.9c-1.2,1.9-2.4,3.7-3.8,5.4l-0.7,0.9
		l-0.7-0.8c-0.9-1-1.7-2-2.5-3.1C158.5,430.6,157.8,429.5,157.1,428.4z"></path><path class="st1" d="M214.2,415.4c0,0-1.5,15,2.2,16.7s55.7,3.3,61.3,0s2.2-19.5,0-19.5S214.2,415.4,214.2,415.4z"></path><path class="st1" d="M327.1,416c0,0-13.4,2.6-10.3,17.8s24.2,11.3,27.8,0S337,413.4,327.1,416z"></path><path class="st0" d="M324.1,428.4c1.1,0.7,2.2,1.6,3.2,2.4c1,0.9,2,1.8,2.9,2.7l-1.5,0.1c1.2-1.9,2.5-3.6,3.9-5.4
		c0.7-0.9,1.4-1.7,2.2-2.5c0.7-0.8,1.5-1.6,2.4-2.4c-0.4,1-0.9,2-1.5,3c-0.5,1-1.1,1.9-1.7,2.9c-1.2,1.9-2.4,3.7-3.8,5.4l-0.7,0.9
		l-0.7-0.8c-0.9-1-1.7-2-2.5-3.1C325.5,430.6,324.8,429.5,324.1,428.4z"></path><rect class="st1" x="194.8" y="308.1" width="102.7" height="75.4"></rect><rect class="st0" x="213" y="333.1" width="66.1" height="2"></rect><rect class="st0" x="213" y="345.6" width="48.9" height="2"></rect><rect class="st0" x="213" y="359.8" width="47.3" height="2"></rect><rect class="st0" x="190.9" y="132.8" width="113" height="114.8"></rect><path class="st1" d="M208.6,147.3h31.2v35.2c0,0-30,5-30,0S208.6,147.3,208.6,147.3z"></path><path class="st1" d="M254.9,147.3h31.3v35.2c0,0-31.2,5-31.2,0S254.9,147.3,254.9,147.3z"></path><path class="st1" d="M208.6,195.7h31.2v35.2c0,0-30,5-30,0S208.6,195.7,208.6,195.7z"></path><path class="st1" d="M254.9,195.7h31.3v35.2c0,0-31.2,5-31.2,0S254.9,195.7,254.9,195.7z"></path><g><defs><path id="SVGID_1_" d="M208.6,147.3h31.2v35.2c0,0-30,5-30,0S208.6,147.3,208.6,147.3z"></path></defs><clipPath id="SVGID_2_"><use xlink:href="#SVGID_1_" style="overflow: visible;"></use></clipPath><g class="st4"><path class="st0" d="M312.3,251.3c0,0-0.1,0-0.1,0l-216.1-68c-0.3-0.1-0.4-0.4-0.3-0.6c0.1-0.3,0.4-0.4,0.7-0.4l216.1,68
				c0.3,0,0.5,0.3,0.4,0.6C312.9,251.1,312.6,251.3,312.3,251.3z"></path><path class="st0" d="M316.7,236h-0.1L99.8,172c-0.3-0.1-0.4-0.4-0.4-0.6s0.4-0.4,0.6-0.4l216.8,64c0.3,0,0.5,0.3,0.4,0.6
				S317,236,316.7,236L316.7,236z"></path><path class="st0" d="M320.8,221.8h-0.1l-217.3-62.2c-0.3-0.1-0.4-0.4-0.4-0.6c0.1-0.3,0.4-0.4,0.6-0.4l217.3,62.2
				c0.3,0,0.5,0.3,0.4,0.6S321,221.8,320.8,221.8L320.8,221.8z"></path><path class="st0" d="M324.6,208.3h-0.1l-217.8-60.9c-0.3-0.1-0.4-0.4-0.3-0.6c0.1-0.3,0.4-0.4,0.6-0.3l0,0l217.8,60.9
				c0.3,0.1,0.4,0.3,0.3,0.6c0,0,0,0,0,0C325,208.1,324.8,208.3,324.6,208.3z"></path><path class="st0" d="M328.8,193.7h-0.1l-218.9-56.5c-0.3-0.1-0.4-0.3-0.4-0.6s0.3-0.4,0.6-0.4l218.9,56.5c0.3,0,0.5,0.3,0.4,0.6
				S329.1,193.7,328.8,193.7L328.8,193.7z"></path><path class="st0" d="M332.4,181.4h-0.1l-219.3-55.1c-0.3-0.1-0.4-0.3-0.4-0.6c0.1-0.3,0.3-0.4,0.6-0.4l219.3,55.1
				c0.3,0.1,0.4,0.3,0.4,0.6c0,0,0,0,0,0C332.8,181.2,332.6,181.4,332.4,181.4z"></path><path class="st0" d="M334.6,173.6h-0.1l-219.5-54.4c-0.3-0.1-0.4-0.3-0.4-0.6c0,0,0,0,0,0c0.1-0.3,0.3-0.4,0.6-0.4c0,0,0,0,0,0
				l219.5,54.4c0.3,0,0.5,0.3,0.4,0.6S334.9,173.6,334.6,173.6L334.6,173.6z"></path><path class="st0" d="M336.5,166.8h-0.1l-218.9-56.5c-0.3-0.1-0.4-0.3-0.4-0.6c0,0,0,0,0,0c0.1-0.3,0.3-0.4,0.6-0.4c0,0,0,0,0,0
				l218.9,56.5c0.3,0.1,0.4,0.3,0.4,0.6C337,166.7,336.8,166.8,336.5,166.8z"></path><path class="st0" d="M137.7,248.8h-0.1c-0.3-0.1-0.4-0.4-0.3-0.6L189.6,65c0.1-0.3,0.3-0.4,0.6-0.3c0,0,0,0,0,0
				c0.3,0.1,0.4,0.3,0.3,0.6c0,0,0,0,0,0l-52.4,183.1C138.1,248.6,137.9,248.7,137.7,248.8z"></path><path class="st0" d="M126.7,245.3c0,0-0.1,0-0.1,0c-0.3-0.1-0.4-0.3-0.3-0.6c0,0,0,0,0,0l54-180.1c0.1-0.3,0.3-0.4,0.6-0.3
				c0,0,0,0,0,0c0.3,0.1,0.4,0.4,0.3,0.6l-54,180.1C127.1,245.1,126.9,245.3,126.7,245.3z"></path><path class="st0" d="M114.5,241.8c0,0-0.1,0-0.1,0c-0.3-0.1-0.4-0.3-0.3-0.6l40-139.9c0.1-0.3,0.4-0.4,0.6-0.3
				c0.3,0.1,0.4,0.3,0.3,0.6c0,0,0,0,0,0l-40,139.9C114.9,241.7,114.7,241.8,114.5,241.8z"></path><path class="st0" d="M102.6,238.5h-0.1c-0.3-0.1-0.4-0.3-0.4-0.6c0,0,0,0,0,0l38.7-140.4c0.1-0.3,0.4-0.4,0.6-0.4
				c0.3,0.1,0.4,0.4,0.4,0.6l-38.8,140.3C103,238.3,102.8,238.5,102.6,238.5z"></path><path class="st0" d="M92.6,235.6h-0.1c-0.3-0.1-0.4-0.3-0.4-0.6c0,0,0,0,0,0l34.5-141.5c0.1-0.3,0.3-0.4,0.6-0.4c0,0,0,0,0,0
				c0.3,0.1,0.4,0.3,0.4,0.6L93.1,235.2C93,235.4,92.8,235.5,92.6,235.6z"></path><path class="st0" d="M81.9,232.4h-0.1c-0.3-0.1-0.4-0.3-0.4-0.6c0,0,0,0,0,0L114.5,90c0.1-0.3,0.3-0.4,0.6-0.4
				c0.3,0.1,0.4,0.3,0.4,0.6L82.3,232.1C82.3,232.3,82.1,232.4,81.9,232.4z"></path><path class="st0" d="M75,230.5h-0.1c-0.3-0.1-0.4-0.3-0.4-0.6l32.3-142.1c0.1-0.3,0.3-0.5,0.6-0.4s0.5,0.3,0.4,0.6l0,0
				L75.4,230.1C75.4,230.3,75.2,230.5,75,230.5z"></path><path class="st0" d="M66.3,228h-0.1c-0.3-0.1-0.4-0.3-0.4-0.6c0,0,0,0,0,0l34.5-141.5c0.1-0.3,0.3-0.4,0.6-0.4
				c0.3,0.1,0.4,0.3,0.4,0.6L66.8,227.6C66.7,227.8,66.5,228,66.3,228z"></path><path class="st0" d="M179.9,270.3h-0.1c-0.3-0.1-0.4-0.4-0.3-0.6l71.5-228.8c0.1-0.3,0.4-0.4,0.6-0.3c0.3,0.1,0.4,0.4,0.3,0.6
				c0,0,0,0,0,0L180.4,270C180.3,270.2,180.1,270.3,179.9,270.3z"></path><path class="st0" d="M168.9,266.7c0,0-0.1,0-0.1,0c-0.3-0.1-0.4-0.3-0.3-0.6c0,0,0,0,0,0l67.5-229.5c0.1-0.3,0.4-0.4,0.6-0.4
				s0.4,0.4,0.4,0.6l-67.6,229.4C169.3,266.5,169.1,266.7,168.9,266.7z"></path><path class="st0" d="M156.7,263.2c0,0-0.1,0-0.1,0c-0.3-0.1-0.4-0.3-0.4-0.6c0,0,0,0,0,0l65.8-230c0.1-0.3,0.4-0.4,0.6-0.3
				c0.3,0.1,0.4,0.4,0.3,0.6l-65.8,230C157.1,263.1,156.9,263.2,156.7,263.2z"></path><path class="st0" d="M144.8,259.9h-0.1c-0.3-0.1-0.4-0.4-0.4-0.6l64.5-230.4c0.1-0.3,0.3-0.4,0.6-0.4c0.3,0.1,0.4,0.3,0.4,0.6
				c0,0,0,0,0,0l-64.5,230.4C145.2,259.8,145,259.9,144.8,259.9z"></path><path class="st0" d="M134.8,257h-0.1c-0.3-0.1-0.4-0.3-0.4-0.6c0,0,0,0,0,0l60.2-231.6c0.1-0.3,0.3-0.4,0.6-0.4s0.4,0.3,0.4,0.6
				l-60.3,231.5C135.3,256.8,135.1,257,134.8,257z"></path><path class="st0" d="M124.1,253.8c0,0-0.1,0-0.1,0c-0.3-0.1-0.4-0.3-0.4-0.6l58.9-231.9c0.1-0.3,0.3-0.4,0.6-0.4c0,0,0,0,0,0
				c0.3,0.1,0.4,0.3,0.4,0.6l-58.9,231.9C124.5,253.7,124.3,253.8,124.1,253.8z"></path><path class="st0" d="M117.2,251.9h-0.1c-0.3-0.1-0.4-0.3-0.4-0.6c0,0,0,0,0,0l58.1-232.2c0.1-0.3,0.3-0.4,0.6-0.4
				c0.3,0.1,0.4,0.3,0.4,0.6c0,0,0,0,0,0l-58.1,232.1C117.6,251.7,117.4,251.9,117.2,251.9z"></path><path class="st0" d="M108.5,249.4h-0.1c-0.3-0.1-0.4-0.3-0.4-0.6c0,0,0,0,0,0l60.2-231.6c0.1-0.3,0.3-0.4,0.6-0.4
				s0.4,0.3,0.4,0.6L109,249C108.9,249.2,108.7,249.4,108.5,249.4z"></path><path class="st0" d="M306,154.9h-0.2l-177.8-57c-0.3-0.1-0.4-0.4-0.3-0.6c0.1-0.3,0.3-0.4,0.6-0.3c0,0,0,0,0,0l177.8,57
				c0.3,0.1,0.4,0.4,0.3,0.6C306.4,154.7,306.2,154.9,306,154.9z"></path><path class="st0" d="M310.3,139.6c0,0-0.1,0-0.1,0l-178.5-53c-0.3-0.1-0.4-0.3-0.3-0.6c0,0,0,0,0,0c0.1-0.3,0.4-0.4,0.6-0.3
				l178.5,53c0.3,0.1,0.4,0.4,0.3,0.6C310.7,139.5,310.6,139.6,310.3,139.6z"></path><path class="st0" d="M314.4,125.4c0,0-0.1,0-0.1,0l-179-51.2c-0.3-0.1-0.4-0.4-0.4-0.6c0.1-0.3,0.3-0.4,0.6-0.3c0,0,0,0,0,0
				l179,51.2c0.3,0.1,0.4,0.4,0.3,0.6l0,0C314.8,125.3,314.6,125.4,314.4,125.4z"></path><path class="st0" d="M318.3,111.9c0,0-0.1,0-0.1,0L138.6,62c-0.3-0.1-0.4-0.4-0.4-0.6c0.1-0.3,0.4-0.4,0.6-0.4l179.5,49.9
				c0.3,0,0.5,0.3,0.4,0.6S318.5,112,318.3,111.9L318.3,111.9z"></path><path class="st0" d="M322.4,97.3h-0.1L141.6,51.8c-0.3-0.1-0.4-0.3-0.4-0.6s0.3-0.4,0.6-0.4l180.7,45.6c0.3,0,0.5,0.3,0.4,0.6
				S322.7,97.4,322.4,97.3L322.4,97.3z"></path><path class="st0" d="M326,85h-0.1l-181-44.2c-0.3-0.1-0.4-0.3-0.4-0.6c0,0,0,0,0,0c0.1-0.3,0.3-0.4,0.6-0.4l181,44.1
				c0.3,0,0.5,0.3,0.4,0.6S326.3,85,326,85z"></path><path class="st0" d="M328.2,77.2h-0.1L146.8,33.8c-0.3-0.1-0.4-0.3-0.4-0.6c0.1-0.3,0.3-0.4,0.6-0.4c0,0,0,0,0,0l181.3,43.4
				c0.3,0.1,0.4,0.3,0.4,0.6C328.7,77,328.5,77.2,328.2,77.2z"></path><path class="st0" d="M330.2,70.4H330L149.4,24.9c-0.3-0.1-0.4-0.3-0.4-0.6c0,0,0,0,0,0c0.1-0.3,0.3-0.4,0.6-0.4c0,0,0,0,0,0
				l180.7,45.6c0.3,0,0.5,0.3,0.4,0.6S330.4,70.5,330.2,70.4L330.2,70.4z"></path><path class="st0" d="M266.6,299.9h-0.1c-0.3-0.1-0.4-0.4-0.3-0.6c0,0,0,0,0,0l71.5-228.8c0.1-0.3,0.4-0.4,0.6-0.3
				c0.3,0.1,0.4,0.4,0.4,0.7l-71.5,228.8C267,299.7,266.8,299.9,266.6,299.9z"></path><path class="st0" d="M255.6,296.2c0,0-0.1,0-0.1,0c-0.3-0.1-0.4-0.3-0.3-0.6c0,0,0,0,0,0l67.5-229.5c0.1-0.3,0.4-0.4,0.6-0.3
				c0.3,0.1,0.4,0.4,0.3,0.6l-67.5,229.5C256,296.1,255.8,296.2,255.6,296.2z"></path><path class="st0" d="M243.4,292.7c0,0-0.1,0-0.1,0c-0.3-0.1-0.4-0.3-0.3-0.6c0,0,0,0,0,0l65.8-230c0.1-0.3,0.3-0.4,0.6-0.4
				c0,0,0,0,0,0c0.3,0.1,0.4,0.3,0.3,0.6c0,0,0,0,0,0l-65.8,230C243.8,292.6,243.6,292.8,243.4,292.7z"></path><path class="st0" d="M231.5,289.4h-0.1c-0.3-0.1-0.4-0.4-0.3-0.6l64.5-230.4c0.1-0.3,0.4-0.4,0.6-0.3c0.3,0.1,0.4,0.4,0.4,0.6
				L232,289.1C231.9,289.3,231.7,289.4,231.5,289.4z"></path><path class="st0" d="M221.5,286.5h-0.1c-0.3-0.1-0.4-0.3-0.4-0.6c0,0,0,0,0,0l60.2-231.6c0.1-0.3,0.3-0.4,0.6-0.4
				s0.4,0.3,0.4,0.6L222,286.1C221.9,286.3,221.8,286.5,221.5,286.5z"></path><path class="st0" d="M210.8,283.4h-0.1c-0.3-0.1-0.4-0.3-0.4-0.6c0,0,0,0,0,0l58.9-231.9c0.1-0.3,0.3-0.4,0.6-0.4
				c0.3,0.1,0.4,0.3,0.4,0.6c0,0,0,0,0,0L211.3,283C211.2,283.2,211,283.4,210.8,283.4z"></path><path class="st0" d="M203.9,281.4h-0.1c-0.3-0.1-0.4-0.3-0.4-0.6c0,0,0,0,0,0l58.2-232.2c0.1-0.3,0.3-0.4,0.6-0.4
				c0.3,0.1,0.4,0.3,0.4,0.6L204.4,281C204.3,281.2,204.1,281.4,203.9,281.4z"></path><path class="st0" d="M195.2,278.9h-0.1c-0.3-0.1-0.4-0.3-0.4-0.6c0,0,0,0,0,0L255,46.7c0.1-0.3,0.4-0.4,0.6-0.4
				c0.3,0.1,0.4,0.4,0.4,0.6l-60.3,231.5C195.6,278.7,195.4,278.9,195.2,278.9z"></path></g></g><path class="st2" d="M301.4,127.3c0.3-1.1,0.7-2.1,1.1-3.1c0.9-1.9,2.1-3.7,3.6-5.2c0.7-0.8,1.5-1.6,2.4-2.2
		c-0.3,1.1-0.6,2.1-1.1,3.1c-0.5,1-1,1.9-1.6,2.8c-0.6,0.9-1.3,1.7-2,2.5C303.1,125.9,302.3,126.6,301.4,127.3z"></path><path class="st2" d="M305.4,129.1c0.8-0.8,1.7-1.4,2.6-2c0.9-0.6,1.9-1.1,2.9-1.5c1-0.5,2-0.8,3.1-1.2c1.1-0.3,2.2-0.5,3.3-0.6
		c-0.8,0.8-1.7,1.5-2.6,2.1c-0.9,0.6-1.9,1.1-2.9,1.5c-1,0.5-2,0.8-3.1,1.1C307.6,128.8,306.5,129,305.4,129.1z"></path><path class="st2" d="M308.6,132.5c0.7-0.3,1.5-0.4,2.3-0.5c0.7,0,1.5,0,2.2,0.1c0.7,0.1,1.5,0.3,2.1,0.5c0.7,0.3,1.4,0.6,2.1,1.1
		c-0.7,0.3-1.5,0.4-2.3,0.4c-0.7,0-1.5,0-2.2-0.1c-0.7-0.1-1.5-0.3-2.1-0.5C309.9,133.4,309.2,133,308.6,132.5z"></path><path class="st1" d="M170.4,413.2c0.3-1.1,0.6-2.1,1.1-3.1c0.5-1,1-1.9,1.6-2.7c0.6-0.9,1.3-1.7,2-2.5c0.7-0.8,1.5-1.5,2.4-2.2
		c-0.3,1.1-0.6,2.1-1.1,3.1c-0.5,1-1,1.9-1.6,2.7c-0.6,0.9-1.3,1.7-2,2.5C172.1,411.9,171.3,412.6,170.4,413.2z"></path><path class="st1" d="M174.4,415c0.8-0.8,1.7-1.4,2.6-2c1.9-1.2,3.9-2.1,5.9-2.7c1.1-0.3,2.2-0.5,3.3-0.6c-0.8,0.8-1.7,1.5-2.6,2.1
		c-1.9,1.1-3.9,2-6,2.7C176.5,414.7,175.5,414.9,174.4,415z"></path><path class="st1" d="M177.5,418.5c0.7-0.3,1.5-0.4,2.3-0.5c0.7,0,1.5,0,2.2,0.1c0.7,0.1,1.5,0.3,2.2,0.5c0.7,0.3,1.4,0.6,2.1,1.1
		c-0.7,0.3-1.5,0.4-2.3,0.5c-0.7,0-1.5,0-2.2-0.1c-0.7-0.1-1.5-0.3-2.1-0.5C178.9,419.3,178.2,418.9,177.5,418.5z"></path></g><g id="line"><path class="st3" d="M88.1,194.8c-1.5-11-1.5-22.1-0.2-33.1c1.2-11.1,4-21.9,8.3-32.1c2.2-5.1,4.9-10,8.1-14.6
		c0.8-1.1,1.6-2.3,2.4-3.4l2.6-3.2c0.9-1,1.9-2,2.8-3.1c1-1,2-2,3-2.9c8.1-7.7,18.2-13,28.7-16.3c-5.1,2.2-10.1,4.3-14.7,7.4
		l-1.8,1.1l-1.7,1.2c-1.1,0.8-2.2,1.6-3.3,2.4l-3.2,2.6c-1.1,0.8-2,1.9-3,2.8c-1,0.9-2,1.9-2.9,2.9c-0.9,1-1.8,2-2.7,3l-2.5,3.2
		c-0.8,1.1-1.6,2.2-2.3,3.3c-3,4.5-5.7,9.3-7.8,14.3c-4.3,10.1-7.1,20.7-8.6,31.6c-0.8,5.4-1.2,10.9-1.5,16.4
		C87.7,183.8,87.8,189.3,88.1,194.8z"></path><path class="st3" d="M110,277.9c5.3-7.2,11.2-14,17.5-20.4c3.1-3.2,6.4-6.3,9.7-9.3s6.8-5.9,10.3-8.7c7-5.6,14.5-10.6,22.4-15
		c3.9-2.2,8-4.2,12.1-5.9c4.1-1.7,8.4-3.2,12.7-4.5c-8.3,3.2-16.4,7.1-24,11.7c-3.8,2.3-7.6,4.7-11.2,7.2s-7.2,5.2-10.7,7.9
		c-7,5.5-13.7,11.4-20.2,17.5c-3.2,3.1-6.4,6.2-9.5,9.4C116,271.2,113,274.5,110,277.9z"></path><polygon class="st3" points="286.1,346.6 289.1,346.2 289.1,346.5 	"></polygon><path class="st3" d="M295.1,345.5c2-0.2,4-0.4,6-0.6l0.1,1.3c-2,0-4,0.1-6,0.2L295.1,345.5z"></path><path class="st3" d="M307.2,344.5c2-0.1,4-0.2,6.1-0.4l0.1,1.8c-2,0.1-4,0.1-6,0.1L307.2,344.5z"></path><polygon class="st3" points="319.3,343.9 325.4,343.7 325.4,345.7 319.4,345.8 	"></polygon><polygon class="st3" points="331.5,343.7 337.5,343.7 337.5,345.7 331.5,345.7 	"></polygon><path class="st3" d="M343.6,343.9c2,0.1,4,0.2,6.1,0.3l-0.1,1.5c-2,0-4,0-6-0.1L343.6,343.9z"></path><path class="st3" d="M355.8,344.7c2,0.2,4,0.4,6,0.6l-0.1,0.9c-2,0-4-0.1-6-0.2L355.8,344.7z"></path><polygon class="st3" points="367.8,346.1 370.8,346.6 367.8,346.5 	"></polygon><path class="st3" d="M279.2,170.2c2.3-2.1,4.8-4,7.6-5.6c2.7-1.6,5.7-2.8,8.8-3.5c3.2-0.7,6.5-0.3,9.5,1.2c1.5,0.8,2.8,1.8,3.8,3
		c1.1,1.2,2,2.5,2.9,3.8c1.8,2.7,3.2,5.5,4.2,8.6c1.1,3,1.7,6.3,1.7,9.5c0,0.9-0.1,1.7-0.3,2.5c-0.2,1-0.7,1.9-1.5,2.5
		c-0.5,0.4-1.1,0.6-1.7,0.6c-0.5,0-1.1-0.1-1.5-0.4c-0.8-0.4-1.5-0.9-2.2-1.6c-0.7-0.7-1.1-1.6-1.2-2.6c-0.1-0.9-0.1-1.8,0-2.6
		c0.3-1.6,0.8-3.2,1.5-4.7c1.4-2.9,3.2-5.6,5.3-8c2.1-2.4,4.4-4.6,7-6.5c5.1-3.9,10.9-6.7,17.1-8.1c6.2-1.4,12.7-1.4,18.9,0.1
		c6.1,1.5,11.9,4.1,17.1,7.7c-5.3-3.2-11.2-5.5-17.3-6.7c-6.1-1.2-12.3-1.1-18.3,0.4c-6,1.5-11.5,4.3-16.4,8.1
		c-4.9,3.7-8.9,8.4-11.6,13.9c-0.6,1.3-1.1,2.7-1.4,4.2c-0.3,1.2-0.1,2.6,0.7,3.6c0.5,0.5,1,0.9,1.6,1.2c0.2,0.1,0.5,0.2,0.7,0.2
		c0.2,0,0.4-0.1,0.5-0.2c0.4-0.4,0.7-0.9,0.8-1.5c0.2-0.7,0.3-1.4,0.3-2.1c0-3-0.5-6-1.5-8.9c-1-2.9-2.3-5.7-3.9-8.3
		c-1.7-2.6-3.5-5.1-6.1-6.5c-2.7-1.4-5.7-1.9-8.7-1.4c-3,0.5-6,1.5-8.7,3C284.2,166.5,281.6,168.3,279.2,170.2z"></path><path class="st3" d="M174,429.7c5.5,0.7,11,1.7,16.4,3.1c2.7,0.7,5.4,1.6,8,2.6c1.3,0.5,2.6,1.1,3.8,1.8c1.3,0.7,2.4,1.6,3.4,2.6
		c0.5,0.6,0.9,1.2,1.2,1.9c0.1,0.4,0.2,0.7,0.3,1.1c0,0.4,0,0.8,0,1.2c-0.1,0.7-0.3,1.4-0.5,2.1c-0.2,0.7-0.5,1.3-0.7,2
		c-0.5,1.3-1.2,2.6-2.1,3.8c-0.4,0.6-0.9,1.2-1.5,1.7c-0.6,0.6-1.5,1-2.4,1c-0.6-0.1-1.1-0.5-1.3-1c-0.2-0.4-0.3-0.9-0.3-1.3
		c0-0.8,0.1-1.5,0.4-2.3c0.2-0.7,0.5-1.4,0.8-2c0.4-0.7,0.8-1.3,1.4-1.9c2.1-2,4.6-3.5,7.4-4.4c5.4-2,11.3-2.2,16.9-0.8
		c2.8,0.8,5.4,2.1,7.7,3.9c2.3,1.8,4.1,4.1,5.6,6.6c0.7,1.2,1.4,2.2,2.3,3.3c0.8,1,1.9,1.8,2.6,1.6s1.6-1.1,2.1-2.2
		c0.6-1.2,1-2.4,1.3-3.7c1.3-5.3,2.1-10.8,2.3-16.2l1.9,0.3c-0.5,1.9-0.7,3.9-0.4,5.8c0.3,1.9,1.1,3.8,2.3,5.3
		c2.4,3.1,6.4,4.7,10.4,5.6c2,0.4,4.1,0.7,6.1,0.8c1,0.1,2,0.1,3,0c1-0.1,1.9-0.4,2.9-0.7c3.8-1.6,7.3-3.9,10.2-6.8
		c3-2.8,5.8-6,8.1-9.4c0.6-0.9,1.1-1.7,1.6-2.7c0.5-0.9,0.8-1.8,1-2.8c0-0.2,0-0.3-0.1-0.5c0-0.1-0.1-0.1-0.2-0.1
		c-0.4,0-0.9,0.1-1.3,0.3c-0.8,0.4-1.5,1.1-1.7,2c-0.2,0.9-0.2,1.9,0.1,2.8c0.4,0.9,0.9,1.8,1.5,2.6c1.3,1.6,3.1,2.8,5,3.4
		c1,0.3,2,0.6,3,0.7c1,0.1,2.1,0.1,3.1,0c2.1-0.2,4.1-0.7,6.1-1.6c-1.9,0.9-3.9,1.5-6,1.8c-2.1,0.3-4.3,0.1-6.3-0.5
		c-2.1-0.6-3.9-1.8-5.4-3.4c-0.7-0.8-1.3-1.7-1.8-2.8c-0.5-1-0.6-2.2-0.4-3.3c0.2-1.2,1-2.2,2.1-2.7c0.5-0.3,1.2-0.4,1.8-0.4
		c0.4,0,0.8,0.3,1,0.7c0.2,0.3,0.2,0.7,0.2,1c-0.1,1.1-0.5,2.2-1,3.2c-0.5,1-1,1.9-1.6,2.8c-2.3,3.6-5,6.9-8.1,9.8
		c-3,3.1-6.6,5.5-10.6,7.3c-1,0.4-2.1,0.7-3.2,0.9c-1.1,0.1-2.2,0.2-3.3,0.1c-2.1-0.1-4.3-0.4-6.4-0.8c-2.1-0.4-4.2-1.1-6.2-2
		c-2-1-3.8-2.3-5.2-4.1c-1.4-1.8-2.4-3.9-2.7-6.1c-0.3-2.2-0.2-4.5,0.4-6.7c0.1-0.5,0.6-0.8,1.1-0.7c0.5,0.1,0.8,0.5,0.7,1l0,0
		c-0.1,2.8-0.4,5.6-0.7,8.4c-0.3,2.8-0.8,5.6-1.5,8.3c-0.4,1.4-0.9,2.8-1.5,4.1c-0.3,0.7-0.8,1.4-1.3,2c-0.3,0.3-0.6,0.6-1,0.9
		c-0.4,0.3-0.9,0.4-1.4,0.5c-0.9,0.1-1.9-0.2-2.6-0.7c-0.6-0.4-1.2-1-1.7-1.6c-0.9-1.1-1.8-2.3-2.5-3.6c-1.3-2.3-3-4.4-5.1-6.1
		c-2.1-1.7-4.4-2.9-7-3.6c-5.2-1.4-10.8-1.1-15.9,0.7c-2.5,0.8-4.9,2.1-6.9,3.9c-0.4,0.4-0.8,0.9-1.1,1.5c-0.3,0.6-0.6,1.2-0.8,1.8
		c-0.2,0.6-0.3,1.2-0.3,1.8c0,0.2,0,0.5,0.1,0.7c0.1,0.2,0.1,0.2,0.3,0.2c0.5,0,1-0.3,1.4-0.6c0.5-0.4,0.9-0.9,1.3-1.4
		c0.8-1.1,1.5-2.2,2-3.5c0.3-0.6,0.5-1.3,0.7-1.9c0.2-0.6,0.4-1.2,0.5-1.9c0.1-1.2-0.4-2.5-1.2-3.4c-0.9-1-2-1.8-3.1-2.5
		c-1.2-0.7-2.4-1.3-3.6-1.9c-2.5-1.1-5.1-2-7.8-2.8C184.8,431.8,179.5,430.6,174,429.7z"></path><path class="st3" d="M84.4,323.4c0,5.5,0.4,11.1,1.4,16.5c0.9,5.4,2.1,10.8,3.8,16.1c3.2,10.5,8.2,20.5,14.6,29.4
		c3.2,4.5,6.8,8.6,10.8,12.5c3.9,3.8,8.2,7.4,12.7,10.5c9.1,6.2,19,11.3,29.5,15c-10.7-3-21-7.7-30.3-13.7c-9.4-6.2-17.6-14-24.2-23
		c-6.6-9.1-11.5-19.3-14.5-30.1c-1.5-5.4-2.6-10.9-3.2-16.4c-0.3-2.8-0.5-5.5-0.6-8.3C84.2,329,84.2,326.2,84.4,323.4z"></path><path class="st3" d="M247.4,413.2c-0.5-2.2-0.9-4.4-1.1-6.7c-0.3-2.2-0.4-4.5-0.5-6.7s-0.1-4.5-0.1-6.7c0-2.3,0.2-4.5,0.5-6.8
		c0.5,2.2,0.9,4.4,1.1,6.7c0.3,2.2,0.4,4.5,0.5,6.7s0.1,4.5,0.1,6.7C247.8,408.7,247.6,411,247.4,413.2z"></path><path class="st3" d="M246.1,300.4c-0.4-3.9-0.6-7.8-0.8-11.6s-0.2-7.8-0.2-11.6s0.1-7.8,0.2-11.6s0.4-7.8,0.8-11.6
		c0.4,3.9,0.6,7.8,0.8,11.6s0.2,7.8,0.2,11.6s-0.1,7.8-0.2,11.6S246.5,296.5,246.1,300.4z"></path></g></svg>